<svg width="80" height="80" viewBox="75 79" xmlns="http://www.w3.org/2000/svg" fill="none"><defs><linearGradient y2="1" x2=".5" y1="0" x1=".5" id="a"><stop stop-color="#6364FF"/><stop stop-color="#563ACC" offset="1"/></linearGradient></defs><path fill="url(#a)" d="M73.84 17.49C72.696 9.002 65.3 2.312 56.53 1.016 55.05.797 49.444 0 36.458 0h-.097c-12.99 0-15.776.797-17.256 1.016-8.525 1.26-16.311 7.271-18.2 15.86-.909 4.23-1.006 8.919-.837 13.22.24 6.17.288 12.327.848 18.47a86.879 86.879 0 0 0 2.022 12.115c1.795 7.361 9.064 13.487 16.185 15.986a43.41 43.41 0 0 0 23.68 1.25 34.565 34.565 0 0 0 2.561-.701c1.911-.607 4.148-1.285 5.793-2.477a.187.187 0 0 0 .075-.144v-5.953a.175.175 0 0 0-.215-.17 65.637 65.637 0 0 1-15.367 1.796c-8.906 0-11.301-4.226-11.987-5.985a18.554 18.554 0 0 1-1.042-4.718.171.171 0 0 1 .135-.178.173.173 0 0 1 .08.002 64.383 64.383 0 0 0 15.116 1.795c1.225 0 2.446 0 3.67-.032 5.121-.144 10.52-.406 15.558-1.39.125-.025.251-.047.359-.079 7.947-1.526 15.51-6.316 16.279-18.445.028-.477.1-5.002.1-5.497.004-1.684.543-11.946-.079-18.251z"/><path stroke-width="5" stroke="#fff" d="m47.125 30.375-6.5 6.5 6.5 6.5m-6.5-6.5H58.5a6.5 6.5 0 0 0 0-13h-1.625"/><g stroke-width="3" stroke="#fff"><path d="M9.375 33h-2.75L19 20.625 31.375 33h-2.75m-19.25 0v9.625a2.75 2.75 0 0 0 2.75 2.75h13.75a2.75 2.75 0 0 0 2.75-2.75V33"/><path d="M14.875 45.375v-8.25a2.75 2.75 0 0 1 2.75-2.75h2.75a2.75 2.75 0 0 1 2.75 2.75v8.25"/></g></svg>